HIERARCHY
ROOT Hips
{
  OFFSET 52.8144 100.706 11.7351
  CHANNELS 6 Xposition Yposition Zposition Zrotation Xrotation Yrotation
  JOINT spine
  {
    OFFSET 0 8.81704 0.507024
    CHANNELS 3 Zrotation Xrotation Yrotation
    JOINT spine1
    {
      OFFSET 0 10.7766 0
      CHANNELS 3 Zrotation Xrotation Yrotation
      JOINT spine2
      {
        OFFSET 0 10.3259 0
        CHANNELS 3 Zrotation Xrotation Yrotation
        JOINT Neck
        {
          OFFSET 0 26.511 1.26395
          CHANNELS 3 Zrotation Xrotation Yrotation
          JOINT Head
          {
            OFFSET 0 8.00966 0
            CHANNELS 3 Zrotation Xrotation Yrotation
            End Site
            {
              OFFSET 0 19.3879 -6.39386
            }
          }
        }
        JOINT RightShoulder
        {
          OFFSET -4.34795 11.1512 -0.605422
          CHANNELS 3 Zrotation Xrotation Yrotation
          JOINT RightArm
          {
            OFFSET 0 14.6258 0
            CHANNELS 3 Zrotation Xrotation Yrotation
            JOINT RightArmRoll
            {
              OFFSET 0 7.3834 0
              CHANNELS 3 Zrotation Xrotation Yrotation
              JOINT RightForeArm
              {
                OFFSET 0 21.5052 0
                CHANNELS 3 Zrotation Xrotation Yrotation
                JOINT RightForeArmRoll
                {
                  OFFSET 0 8.28532 0
                  CHANNELS 3 Zrotation Xrotation Yrotation
                  JOINT RightHand
                  {
                    OFFSET 0 16.6268 0
                    CHANNELS 3 Zrotation Xrotation Yrotation
                    End Site
                    {
                      OFFSET 0 0 0
                    }
                  }
                }
              }
            }
          }
        }
        JOINT LeftShoulder
        {
          OFFSET 4.34795 11.1512 -0.605422
          CHANNELS 3 Zrotation Xrotation Yrotation
          JOINT LeftArm
          {
            OFFSET 0 14.6258 0
            CHANNELS 3 Zrotation Xrotation Yrotation
            JOINT LeftArmRoll
            {
              OFFSET 0 7.3834 0
              CHANNELS 3 Zrotation Xrotation Yrotation
              JOINT LeftForeArm
              {
                OFFSET 0 21.5052 0
                CHANNELS 3 Zrotation Xrotation Yrotation
                JOINT LeftForeArmRoll
                {
                  OFFSET 0 8.28532 0
                  CHANNELS 3 Zrotation Xrotation Yrotation
                  JOINT LeftHand
                  {
                    OFFSET 0 16.6268 0
                    CHANNELS 3 Zrotation Xrotation Yrotation
                    End Site
                    {
                      OFFSET 0 0 0
                    }
                  }
                }
              }
            }
          }
        }
      }
    }
  }
  JOINT RightUpLeg
  {
    OFFSET -7.8151 -1.43309 -1.20217
    CHANNELS 3 Zrotation Xrotation Yrotation
    JOINT RightUpLegRoll
    {
      OFFSET 0 19.4959 0
      CHANNELS 3 Zrotation Xrotation Yrotation
      JOINT RightLeg
      {
        OFFSET 0 -24.1427 0
        CHANNELS 3 Zrotation Xrotation Yrotation
        JOINT RightLegRoll
        {
          OFFSET 0 24.2217 0
          CHANNELS 3 Zrotation Xrotation Yrotation
          JOINT RightFoot
          {
            OFFSET 0 20.1605 0
            CHANNELS 3 Zrotation Xrotation Yrotation
            JOINT RightToeBase
            {
              OFFSET 0 16.8532 0
              CHANNELS 3 Zrotation Xrotation Yrotation
              End Site
              {
                OFFSET 0.00714343 8.16187 -0.94078
              }
            }
          }
        }
      }
    }
  }
  JOINT LeftUpLeg
  {
    OFFSET 7.8151 -1.43309 -1.20217
    CHANNELS 3 Zrotation Xrotation Yrotation
    JOINT LeftUpLegRoll
    {
      OFFSET 0 19.496 0
      CHANNELS 3 Zrotation Xrotation Yrotation
      JOINT LeftLeg
      {
        OFFSET 0 24.1426 0
        CHANNELS 3 Zrotation Xrotation Yrotation
        JOINT LeftLegRoll
        {
          OFFSET 0 24.4456 0
          CHANNELS 3 Zrotation Xrotation Yrotation
          JOINT LeftFoot
          {
            OFFSET 0 19.9366 0
            CHANNELS 3 Zrotation Xrotation Yrotation
            JOINT LeftToeBase
            {
              OFFSET 0 16.8532 0
              CHANNELS 3 Zrotation Xrotation Yrotation
              End Site
              {
                OFFSET -0.0320138 8.16187 -0.94078
              }
            }
          }
        }
      }
    }
  }
}
MOTION
Frames: 13
Frame Time: 0.00208333
52.7051 100.625 12.4248 -0.899967 -2.38647 3.38807 0.163629 -2.16831 -0.125174 0.313494 -0.334176 -0.26532 0.302551 1.31089 -0.270299 6.64223 26.9227 0.496952 -11.0711 -9.19841 0.769574 72.5768 -2.20116 -2.66216 102.758 19.0614 11.2134 -3.97569e-015 -1.27222e-014 -0 15.5109 0.278005 -0.0834662 -7.11437e-006 4.61363e-006 -3.0024 8.02898 -4.95144 0.697693 -58.0104 -4.08479 2.49177 -114.072 10.9613 -6.22015 -2.10691e-005 -1.40248e-007 5.31604e-006 -9.99466 5.56819 1.08139 6.06464e-006 6.63264e-007 3.00999 -8.02893 -4.95144 -0.697674 179.75 -1.88381 -1.24746 180 7.01547e-015 178.925 178.919 4.65474 179.717 -1.73508e-006 -1.14918e-006 0.0271664 -18.3663 67.6245 19.2217 8.13649 25.2327 -3.48774 -176.003 -0.580197 1.63525 4.54188e-006 -4.6773e-006 -1.10568 -2.20287 -7.74183 0.160061 -1.73592e-007 -1.62038e-006 -0.139219 19.667 69.1751 -20.5788 -8.13649 25.2327 3.48774 
52.7071 100.635 12.425 -0.895541 -2.3836 3.3858 0.16363 -2.17032 -0.126327 0.312157 -0.338209 -0.26761 0.302264 1.30685 -0.272589 6.59502 26.9457 0.507815 -11.0163 -9.18838 0.775889 72.5836 -2.1665 -2.64686 102.737 19.0457 11.2271 -2.38542e-015 -6.36111e-015 -0 15.5114 0.275733 -0.0830748 -7.11437e-006 4.61363e-006 -3.0024 8.02898 -4.95144 0.697693 -58.043 -4.07761 2.48978 -114.03 10.9456 -6.23977 -2.10691e-005 -1.40248e-007 5.31604e-006 -9.99567 5.56467 1.0813 6.06464e-006 6.63264e-007 3.00999 -8.02893 -4.95144 -0.697674 179.745 -1.87939 -1.24768 180 7.01547e-015 178.925 178.922 4.65665 179.717 -1.73508e-006 -1.14918e-006 0.0271664 -18.3659 67.6241 19.2213 8.13649 25.2327 -3.48774 -176.009 -0.577331 1.63855 4.54188e-006 -4.6773e-006 -1.1057 -2.20366 -7.73904 0.159958 -1.73592e-007 -1.62038e-006 -0.139165 19.667 69.1751 -20.5789 -8.13649 25.2327 3.48774 
52.7088 100.632 12.4343 -0.890909 -2.38065 3.38337 0.163631 -2.17255 -0.127502 0.310742 -0.342667 -0.269945 0.301937 1.30239 -0.274925 6.54574 26.9733 0.519055 -10.9589 -9.18231 0.782191 72.5909 -2.12963 -2.6306 102.716 19.029 11.2419 -3.97569e-015 3.18055e-015 -0 15.5116 0.273102 -0.0826418 -7.11437e-006 4.61363e-006 -3.0024 8.02898 -4.95144 0.697693 -58.0774 -4.06973 2.48749 -113.985 10.9306 -6.2587 -2.10691e-005 -1.40248e-007 5.31604e-006 -9.99782 5.55866 1.08098 6.06464e-006 6.63264e-007 3.00999 -8.02893 -4.95144 -0.697674 179.739 -1.87513 -1.24815 180 7.01547e-015 178.925 178.927 4.65883 179.716 -1.73508e-006 -1.14918e-006 0.0271664 -18.3655 67.6235 19.2208 8.13649 25.2327 -3.48774 -176.015 -0.574954 1.64201 4.54188e-006 -4.6773e-006 -1.10572 -2.20448 -7.7352 0.159841 -1.73592e-007 -1.62038e-006 -0.139084 19.6667 69.1748 -20.5786 -8.13649 25.2327 3.48774 
52.7121 100.632 12.4277 -0.886132 -2.37766 3.38082 0.163631 -2.17493 -0.128694 0.309272 -0.347421 -0.272312 0.301582 1.29764 -0.277291 6.49499 27.0043 0.530561 -10.8996 -9.179 0.788485 72.5987 -2.0912 -2.61366 102.694 19.0117 11.2575 1.27222e-014 -6.36111e-015 6.36111e-015 15.5117 0.270219 -0.0821796 -7.11437e-006 4.61363e-006 -3.0024 8.02898 -4.95144 0.697693 -58.113 -4.06136 2.48498 -113.939 10.9161 -6.27715 -2.10691e-005 -1.40248e-007 5.31604e-006 -10.0008 5.55091 1.0805 6.06464e-006 6.63264e-007 3.00999 -8.02893 -4.95144 -0.697674 179.734 -1.871 -1.24881 180 7.01547e-015 178.925 178.931 4.66124 179.716 -1.73508e-006 -1.14918e-006 0.0271664 -18.3649 67.6228 19.2202 8.13649 25.2327 -3.48774 -176.022 -0.572921 1.6456 4.54188e-006 -4.6773e-006 -1.10575 -2.20531 -7.73064 0.159716 -1.73592e-007 -1.62038e-006 -0.138985 19.6662 69.1742 -20.578 -8.13649 25.2327 3.48774 
52.7018 100.632 12.429 -0.881272 -2.37464 3.37821 0.163632 -2.17739 -0.129895 0.307771 -0.352346 -0.274697 0.30121 1.29271 -0.279676 6.4434 27.0372 0.542223 -10.8393 -9.17727 0.794774 72.6066 -2.05188 -2.59634 102.671 18.994 11.2736 -4.77083e-015 -3.18055e-015 -1.59028e-015 15.5116 0.267193 -0.0817007 -7.11437e-006 4.61363e-006 -3.0024 8.02898 -4.95144 0.697693 -58.1493 -4.0527 2.48235 -113.892 10.902 -6.29532 -2.10691e-005 -1.40248e-007 5.31604e-006 -10.0042 5.54217 1.07992 6.06464e-006 6.63264e-007 3.00999 -8.02893 -4.95144 -0.697674 179.728 -1.86692 -1.24956 180 7.01547e-015 178.925 178.936 4.66375 179.716 -1.73508e-006 -1.14918e-006 0.0271664 -18.3643 67.6221 19.2195 8.13649 25.2327 -3.48774 -176.029 -0.571083 1.64926 4.54188e-006 -4.6773e-006 -1.10578 -2.20614 -7.72566 0.159585 -1.73592e-007 -1.62038e-006 -0.138875 19.6655 69.1735 -20.5773 -8.13649 25.2327 3.48774 
52.7064 100.637 12.4279 -0.876391 -2.37162 3.37559 0.163633 -2.17987 -0.131099 0.306261 -0.357313 -0.277087 0.300834 1.28774 -0.282066 6.39158 27.0705 0.55393 -10.7787 -9.17593 0.801062 72.6146 -2.01235 -2.57892 102.648 18.9762 11.2897 -5.56597e-015 -6.36111e-015 -0 15.5115 0.26413 -0.0812176 -7.11437e-006 4.61363e-006 -3.0024 8.02898 -4.95144 0.697693 -58.1858 -4.04397 2.47969 -113.844 10.8879 -6.31342 -2.10691e-005 -1.40248e-007 5.31604e-006 -10.0077 5.53318 1.07932 6.06464e-006 6.63264e-007 3.00999 -8.02893 -4.95144 -0.697674 179.723 -1.86287 -1.25034 180 7.01547e-015 178.925 178.941 4.66629 179.715 -1.73508e-006 -1.14918e-006 0.0271664 -18.3637 67.6213 19.2189 8.13649 25.2327 -3.48774 -176.036 -0.569295 1.65293 4.54188e-006 -4.6773e-006 -1.10582 -2.20698 -7.72058 0.159453 -1.73592e-007 -1.62038e-006 -0.138762 19.6648 69.1727 -20.5765 -8.13649 25.2327 3.48774 
52.7149 100.635 12.4128 -0.871552 -2.36861 3.37299 0.163633 -2.18231 -0.132297 0.304767 -0.362196 -0.279468 0.300466 1.28286 -0.284446 6.34017 27.1028 0.565569 -10.7187 -9.17381 0.807352 72.6225 -1.97325 -2.5617 102.626 18.9587 11.3057 3.18055e-015 -6.36111e-015 4.77083e-015 15.5115 0.26114 -0.0807429 -7.11437e-006 4.61363e-006 -3.0024 8.02898 -4.95144 0.697693 -58.2219 -4.03538 2.47709 -113.797 10.8736 -6.33166 -2.10691e-005 -1.40248e-007 5.31604e-006 -10.011 5.52469 1.07877 6.06464e-006 6.63264e-007 3.00999 -8.02893 -4.95144 -0.697674 179.717 -1.85878 -1.25106 180 7.01547e-015 178.925 178.946 4.66878 179.715 -1.73508e-006 -1.14918e-006 0.0271664 -18.3632 67.6206 19.2183 8.13649 25.2327 -3.48774 -176.043 -0.567409 1.65657 4.54188e-006 -4.6773e-006 -1.10585 -2.20782 -7.71571 0.159324 -1.73592e-007 -1.62038e-006 -0.138655 19.6642 69.1721 -20.5758 -8.13649 25.2327 3.48774 
52.7131 100.639 12.4156 -0.866815 -2.36563 3.37048 0.163633 -2.18465 -0.133485 0.303311 -0.366866 -0.281826 0.300117 1.27819 -0.286804 6.28978 27.1329 0.577027 -10.6599 -9.16971 0.813647 72.63 -1.93526 -2.54496 102.604 18.9415 11.321 -1.03368e-014 -3.18055e-015 -3.18055e-015 15.5115 0.258329 -0.080289 -7.11437e-006 4.61363e-006 -3.0024 8.02898 -4.95144 0.697693 -58.2572 -4.02714 2.47464 -113.752 10.859 -6.35024 -2.10691e-005 -1.40248e-007 5.31604e-006 -10.0137 5.51743 1.07834 6.06464e-006 6.63264e-007 3.00999 -8.02893 -4.95144 -0.697674 179.712 -1.85461 -1.25167 180 7.01547e-015 178.925 178.951 4.67112 179.714 -1.73508e-006 -1.14918e-006 0.0271664 -18.3626 67.62 19.2177 8.13649 25.2327 -3.48774 -176.05 -0.565277 1.66012 4.54188e-006 -4.6773e-006 -1.10587 -2.20864 -7.71136 0.159201 -1.73592e-007 -1.62038e-006 -0.138561 19.6637 69.1716 -20.5753 -8.13649 25.2327 3.48774 
52.716 100.639 12.4224 -0.862243 -2.3627 3.36809 0.163634 -2.18681 -0.134653 0.301917 -0.371196 -0.284147 0.2998 1.27385 -0.289126 6.24103 27.1591 0.588191 -10.6033 -9.16245 0.819952 72.6371 -1.89904 -2.529 102.583 18.9252 11.3355 -2.38542e-015 -6.36111e-015 1.59028e-015 15.5119 0.255805 -0.0798684 -7.11437e-006 4.61363e-006 -3.0024 8.02898 -4.95144 0.697693 -58.291 -4.01948 2.47244 -113.708 10.8438 -6.36936 -2.10691e-005 -1.40248e-007 5.31604e-006 -10.0155 5.51217 1.07809 6.06464e-006 6.63264e-007 3.00999 -8.02893 -4.95144 -0.697674 179.707 -1.85031 -1.25207 180 7.01547e-015 178.925 178.955 4.67322 179.714 -1.73508e-006 -1.14918e-006 0.0271664 -18.3622 67.6194 19.2172 8.13649 25.2327 -3.48774 -176.056 -0.562754 1.66354 4.54188e-006 -4.6773e-006 -1.10589 -2.20945 -7.70783 0.159089 -1.73592e-007 -1.62038e-006 -0.138488 19.6635 69.1714 -20.5751 -8.13649 25.2327 3.48774 
52.7155 100.629 12.4181 -0.857899 -2.35985 3.36588 0.163634 -2.18874 -0.135796 0.300608 -0.375059 -0.286419 0.299527 1.26999 -0.291398 6.19457 27.1802 0.598945 -10.5495 -9.15084 0.82627 72.6434 -1.86526 -2.5141 102.563 18.9098 11.3487 1.43125e-014 -9.54166e-015 4.77083e-015 15.5125 0.253676 -0.0794937 -7.11437e-006 4.61363e-006 -3.0024 8.02898 -4.95144 0.697693 -58.323 -4.01259 2.47059 -113.666 10.8278 -6.38925 -2.10691e-005 -1.40248e-007 5.31604e-006 -10.0161 5.50964 1.0781 6.06464e-006 6.63264e-007 3.00999 -8.02893 -4.95144 -0.697674 179.702 -1.84581 -1.25219 180 7.01547e-015 178.925 178.958 4.67499 179.714 -1.73508e-006 -1.14918e-006 0.0271664 -18.3619 67.619 19.2169 8.13649 25.2327 -3.48774 -176.062 -0.559691 1.66676 4.54188e-006 -4.6773e-006 -1.10591 -2.21024 -7.70546 0.158991 -1.73592e-007 -1.62038e-006 -0.138445 19.6637 69.1715 -20.5753 -8.13649 25.2327 3.48774 
52.7138 100.632 12.4255 -0.853844 -2.35709 3.3639 0.163634 -2.19038 -0.136907 0.299408 -0.378328 -0.288627 0.29931 1.26672 -0.293608 6.15101 27.1947 0.609176 -10.4995 -9.13371 0.832603 72.649 -1.83458 -2.50054 102.544 18.8957 11.3603 -1.11319e-014 6.36111e-015 -4.77083e-015 15.5135 0.25205 -0.0791773 -7.11437e-006 4.61363e-006 -3.0024 8.02898 -4.95144 0.697693 -58.3525 -4.00669 2.46916 -113.627 10.8107 -6.4101 -2.10691e-005 -1.40248e-007 5.31604e-006 -10.015 5.51058 1.07844 6.06464e-006 6.63264e-007 3.00999 -8.02893 -4.95144 -0.697674 179.697 -1.84109 -1.25196 180 7.01547e-015 178.925 178.96 4.67636 179.714 -1.73508e-006 -1.14918e-006 0.0271664 -18.3616 67.6187 19.2166 8.13649 25.2327 -3.48774 -176.068 -0.555942 1.66974 4.54188e-006 -4.6773e-006 -1.10591 -2.211 -7.70453 0.158911 -1.73592e-007 -1.62038e-006 -0.138438 19.6643 69.1722 -20.576 -8.13649 25.2327 3.48774 
52.7082 100.633 12.4226 -0.85014 -2.35445 3.36218 0.163633 -2.19165 -0.137978 0.29834 -0.380876 -0.290758 0.299162 1.26417 -0.295741 6.11098 27.2011 0.618768 -10.4539 -9.10986 0.838955 72.6535 -1.80766 -2.48862 102.528 18.8833 11.37 1.98785e-014 -6.36111e-015 7.95139e-015 15.5149 0.251034 -0.0789318 -7.11437e-006 4.61363e-006 -3.0024 8.02898 -4.95144 0.697693 -58.379 -4.00201 2.46826 -113.593 10.7924 -6.43211 -2.10691e-005 -1.40248e-007 5.31604e-006 -10.0121 5.51575 1.07917 6.06464e-006 6.63264e-007 3.00999 -8.02893 -4.95144 -0.697674 179.693 -1.83607 -1.2513 180 7.01547e-015 178.925 178.961 4.67722 179.714 -1.73508e-006 -1.14918e-006 0.0271664 -18.3616 67.6187 19.2166 8.13649 25.2327 -3.48774 -176.073 -0.551361 1.67242 4.54188e-006 -4.6773e-006 -1.1059 -2.21173 -7.70537 0.158853 -1.73592e-007 -1.62038e-006 -0.138476 19.6655 69.1735 -20.5772 -8.13649 25.2327 3.48774 
52.7127 100.633 12.4328 -0.84685 -2.35194 3.36079 0.163633 -2.1925 -0.139002 0.297428 -0.382574 -0.292798 0.299094 1.26247 -0.297785 6.07512 27.1982 0.627605 -10.4136 -9.0781 0.845329 72.6568 -1.78518 -2.47863 102.513 18.8727 11.3775 9.54166e-015 -3.18055e-015 4.77083e-015 15.5169 0.250736 -0.0787696 -7.11437e-006 4.61363e-006 -3.0024 8.02898 -4.95144 0.697693 -58.402 -3.99874 2.46798 -113.562 10.7727 -6.4555 -2.10691e-005 -1.40248e-007 5.31604e-006 -10.0068 5.52589 1.08038 6.06464e-006 6.63264e-007 3.00999 -8.02893 -4.95144 -0.697674 179.689 -1.83072 -1.25013 180 7.01547e-015 178.925 178.96 4.67751 179.714 -1.73508e-006 -1.14918e-006 0.0271664 -18.3618 67.6189 19.2167 8.13649 25.2327 -3.48774 -176.078 -0.545799 1.67476 4.54188e-006 -4.6773e-006 -1.10587 -2.21242 -7.70829 0.158822 -1.73592e-007 -1.62038e-006 -0.138568 19.6674 69.1755 -20.5792 -8.13649 25.2327 3.48774 
